<svg xmlns="http://www.w3.org/2000/svg" width="256" height="256"><path fill="#1976D2" fill-opacity=".016" fill-rule="evenodd" d="M0 128.004v128.004l128.25-.254 128.25-.254.254-127.75L257.008 0H0zm.485.496c0 70.4.119 99.053.265 63.672s.146-92.98 0-128S.485 58.1.485 128.5"/><path fill="#1976D2" fill-opacity=".135" fill-rule="evenodd" d="M0 128.011v46.997l128.25-.254 128.25-.254.26-47 .259-47-128.509.258L0 81.015zM.462 128c0 26.125.129 36.813.287 23.75.158-13.062.158-34.437 0-47.5C.591 91.188.462 101.875.462 128m42.318-23.008c-15.239 2.799-23.249 19.827-16.03 34.079 5.937 11.722 19.379 15.922 31.432 9.821 6.479-3.279 5.684-3.964-4.429-3.813-7.745.116-10.123-.227-13.493-1.947-10.33-5.269-12.744-18.146-4.911-26.191C39.983 112.182 43.711 111 54.09 111c7.876 0 8.987-.202 7.954-1.447-2.65-3.193-13.162-5.681-19.264-4.561m4.004 19.917-3.284 2.942 2.937 3.075c1.615 1.69 3.444 3.074 4.063 3.074s2.412-1.342 3.983-2.983c2.829-2.952 2.839-3.004.949-5.092-3.646-4.029-5.095-4.199-8.648-1.016m82.466 14.111c-1.977.805-2.25 1.634-2.25 6.841 0 6.522.565 7.139 6.547 7.139 4.28 0 5.864-2.658 5.184-8.696-.273-2.421-.662-4.553-.864-4.737-1.083-.984-6.67-1.339-8.617-.547m80 .011c-1.939.78-2.25 1.642-2.25 6.237 0 6.275 1.13 7.732 6 7.732 4.869 0 6-1.457 6-7.725 0-4.795-.255-5.421-2.565-6.3-3.043-1.157-4.19-1.148-7.185.056M96 140.094c0 .601.9 1.329 2 1.616 1.688.442 2 1.364 2 5.907 0 4.716.248 5.383 2 5.383 1.758 0 2-.667 2-5.5s.242-5.5 2-5.5c1.111 0 2-.667 2-1.5 0-1.167-1.333-1.5-6-1.5-3.676 0-6 .424-6 1.094M111 146c0 6.333.19 7 2 7 1.556 0 2-.667 2-3s.444-3 2-3 2 .667 2 3 .444 3 2 3c1.81 0 2-.667 2-7s-.19-7-2-7c-1.467 0-2 .667-2 2.5s-.533 2.5-2 2.5-2-.667-2-2.5-.533-2.5-2-2.5c-1.81 0-2 .667-2 7m32.158-3.134c-1.602 5.349-1.496 10.134.225 10.134.761 0 1.619-.9 1.907-2 .313-1.197 1.364-2 2.616-2 1.427 0 2.094.637 2.094 2q0 2 2 2c2.374 0 2.701-3.93.842-10.134C151.77 139.287 151.41 139 148 139s-3.77.287-4.842 3.866M158 146c0 5.556.31 7 1.5 7 1.054 0 1.5-1.065 1.5-3.583 0-4.379 1.839-4.212 4 .363 2.552 5.405 4 4.037 4-3.78 0-5.556-.31-7-1.5-7-.833 0-1.5.889-1.5 2 0 1.1-.38 2-.845 2s-1.66-.9-2.655-2c-3.418-3.777-4.5-2.575-4.5 5m19-5.5c0 .833.889 1.5 2 1.5 1.758 0 2 .667 2 5.5s.242 5.5 2 5.5 2-.667 2-5.5.242-5.5 2-5.5c1.111 0 2-.667 2-1.5 0-1.167-1.333-1.5-6-1.5s-6 .333-6 1.5m15 5.5c0 5.556.31 7 1.5 7 .933 0 1.5-.944 1.5-2.5 0-2 .5-2.5 2.5-2.5s2.5.5 2.5 2.5c0 1.833.533 2.5 2 2.5 1.547 0 2-.667 2-2.941 0-1.618-.45-3.219-1-3.559s-1-2.166-1-4.059V139h-10zm31 0c0 5.556.31 7 1.5 7 1.048 0 1.5-1.056 1.5-3.5 0-1.925.38-3.5.845-3.5 1.396 0 4.155 3.538 4.155 5.329 0 .919.675 1.671 1.5 1.671 1.19 0 1.5-1.444 1.5-7s-.31-7-1.5-7c-.833 0-1.5.889-1.5 2 0 1.1-.38 2-.845 2s-1.66-.9-2.655-2c-3.418-3.777-4.5-2.575-4.5 5m15.607-5.418c-.334.87-.607 3.554-.607 5.965 0 5.129 1.627 6.453 7.934 6.453 3.98 0 4.066-.074 4.066-3.5 0-2.833-.381-3.5-2-3.5q-2 0-2 2t-2 2c-1.667 0-2-.667-2-4 0-3.778.167-4 3-4q3 0 3-1.5c0-2.181-8.553-2.106-9.393.082m-107.606 1.917c-1.866 2.248-.848 7.001 1.499 7.001 1.576 0 2.064-.768 2.303-3.623.331-3.967-1.766-5.831-3.802-3.378m64.687-.853c-1.416 1.415-.615 3.354 1.385 3.354 1.398 0 1.968-.543 1.75-1.667-.357-1.841-2.064-2.759-3.135-1.687m15.91.09c-.329.328-.598 2.322-.598 4.431 0 3.166.348 3.833 2 3.833 1.658 0 2-.667 2-3.893 0-3.615-1.82-5.953-3.402-4.371m-64.931.931C145.29 144.043 146.073 146 148 146c2.202 0 2.273-.124 1.393-2.418-.644-1.679-1.631-2.01-2.726-.915M211 156.5c0 .833.889 1.5 2 1.5s2-.667 2-1.5-.889-1.5-2-1.5-2 .667-2 1.5"/><path fill="#1976D2" fill-opacity=".447" fill-rule="evenodd" d="M0 128.011v46.997l128.25-.254 128.25-.254.26-47 .259-47-128.509.258L0 81.015zM.462 128c0 26.125.129 36.813.287 23.75.158-13.062.158-34.437 0-47.5C.591 91.188.462 101.875.462 128m41.904-39.781c-.753 2.626-1.622 3.385-4.708 4.115-3.29.778-4.112.588-6.276-1.445-2.341-2.199-2.651-2.247-5.186-.796-2.294 1.312-2.67 2.147-2.518 5.607.144 3.297-.363 4.582-2.682 6.804-2.542 2.435-3.198 2.621-5.903 1.678-2.72-.948-3.258-.787-5.068 1.514-2.583 3.283-2.549 3.737.494 6.558 2.407 2.233 2.458 2.51 1.152 6.281-1.06 3.062-2.072 4.149-4.518 4.85-2.83.812-3.153 1.296-3.153 4.731 0 3.474.298 3.904 3.235 4.665 2.637.683 3.446 1.566 4.379 4.779 1.052 3.622.945 4.153-1.317 6.581-2.371 2.543-2.403 2.754-.854 5.75 1.76 3.402 2.22 3.568 5.954 2.148 2.147-.816 2.971-.517 5.472 1.984 2.518 2.518 2.87 3.503 2.429 6.794-.479 3.571-.289 3.944 2.632 5.154 2.856 1.183 3.366 1.099 5.497-.902 2.095-1.969 2.776-2.091 6.316-1.138 3.239.872 4.138 1.664 4.898 4.312 1.55 5.406 8.248 5.113 9.892-.434.793-2.673 1.656-3.422 4.791-4.152 3.33-.776 4.016-.617 5.307 1.226 1.823 2.603 4.425 2.702 7.414.282 1.985-1.607 2.134-2.214 1.2-4.891-.972-2.789-.78-3.332 2.192-6.213 3.005-2.913 3.472-3.06 6.028-1.895 2.496 1.137 2.956 1.032 4.652-1.063 1.036-1.278 1.883-3.175 1.883-4.214 0-1.673-.804-1.889-7.031-1.889-6.767 0-7.144.13-10.068 3.46-1.671 1.903-5.568 4.698-8.661 6.211-13.988 6.844-30.803 1.433-39.028-12.558-2.407-4.094-2.712-5.626-2.712-13.613 0-10.653 1.558-14.606 8.506-21.583 10.864-10.908 30.155-10.69 41.313.469 3.467 3.467 3.9 3.614 10.648 3.614 6.229 0 7.033-.216 7.033-1.889 0-1.039-.793-2.869-1.762-4.066-1.534-1.894-2.139-2.033-4.664-1.073-2.623.997-3.214.8-6.161-2.056-2.812-2.725-3.114-3.477-2.205-5.474 1.353-2.969.679-4.63-2.591-6.379-2.396-1.282-2.836-1.206-5.057.881-2.09 1.963-2.955 2.161-6.146 1.407-3.588-.849-4.662-1.885-5.81-5.601-.394-1.274-1.599-1.75-4.428-1.75-3.519 0-3.974.304-4.81 3.219m93.128 6.787c-2.422 2.677-1.19 3.68 1.975 1.606 2.357-1.544 2.705-1.544 5.062 0 3.165 2.074 4.397 1.071 1.975-1.606-2.328-2.572-6.684-2.572-9.012 0m86.098.494c-2.18 3.327-.132 3.343 3.908.031l3-2.459-2.635-.036c-1.733-.024-3.196.82-4.273 2.464M98 104.417c0 2.625-.507 4.6-1.25 4.869-1 .362-1 .876 0 2.57.688 1.164 1.25 3.923 1.25 6.13V122h4.532c5.509 0 10.927-2.121 12.388-4.85.594-1.11 1.08-4.258 1.08-6.995 0-4.33-.4-5.314-3.077-7.566-2.552-2.148-4.086-2.589-9-2.589H98zm22-3.539c0 .482.675 1.437 1.5 2.122 1.068.887 1.5 3.233 1.5 8.154 0 5.219-.367 7.05-1.5 7.484-.825.317-1.5 1.203-1.5 1.969 0 .982 1.312 1.393 4.441 1.393 4.873 0 6.35-1.098 4.048-3.009-2.13-1.768-2.121-15.535.011-16.353 3.174-1.218 1.29-2.638-3.5-2.638-2.75 0-5 .395-5 .878M134 111v11h6c5.333 0 6-.222 6-2 0-1.667-.667-2-4-2-3.778 0-4-.167-4-3s.222-3 4-3c5.4 0 5.615-2.746.25-3.19-3.256-.269-3.792-.672-4.066-3.06-.3-2.601-.097-2.75 3.75-2.75 2.948 0 4.066-.413 4.066-1.5 0-1.167-1.333-1.5-6-1.5h-6zm17-.063c0 10.396.121 11.063 2 11.063 1.846 0 2.002-.675 2.024-8.75l.025-8.75 5.056 8.75c4.535 7.847 5.358 8.75 7.976 8.75H171v-11c0-10.258-.132-11-1.96-11-1.764 0-1.988.822-2.25 8.25l-.29 8.25-4.515-8c-4.044-7.165-4.853-8.033-7.75-8.313L151 99.873zm34 0c0 10.396.121 11.063 2 11.063 1.829 0 2.009-.703 2.11-8.25l.11-8.25 2.571 8.296c2.181 7.037 2.873 8.251 4.56 8 1.507-.224 2.616-2.161 4.569-7.976 1.419-4.224 2.853-7.947 3.186-8.273.334-.326.559 3.117.5 7.652-.091 7.102.137 8.293 1.644 8.596 1.582.318 1.75-.708 1.75-10.722V100h-2.824c-2.64 0-2.978.491-5.195 7.562-1.305 4.159-2.716 7.774-3.136 8.034s-1.827-3.031-3.125-7.312c-2.254-7.431-2.505-7.798-5.54-8.097l-3.18-.314zm31.071-1.233a8076 8076 0 0 1-3.845 11.046c-.264.75.424 1.25 1.719 1.25 1.5 0 2.478-.916 3.205-3 .926-2.657 1.501-3 5.035-3 3.514 0 4.124.357 5.121 3 .798 2.115 1.8 3 3.393 3 2.251 0 2.245-.046-1.555-10.75-3.597-10.13-3.986-10.767-6.743-11.046-2.86-.289-3.002-.076-6.33 9.5M234 100.466c0 .256 1.575 3.331 3.5 6.833 2.421 4.405 3.5 7.651 3.5 10.534 0 3.5.32 4.167 2 4.167 1.689 0 2-.667 2-4.283 0-2.987 1.079-6.314 3.567-11l3.567-6.717h-2.415c-1.85 0-2.837.935-4.219 4-.992 2.2-2.113 4-2.491 4s-1.547-1.795-2.598-3.989c-1.387-2.894-2.528-3.991-4.161-4-1.238-.006-2.25.199-2.25.455m-131 5.409c0 2.111.487 3.125 1.5 3.125.833 0 1.5.889 1.5 2s-.667 2-1.5 2c-.933 0-1.5.944-1.5 2.5 0 2.1.47 2.5 2.943 2.5 3.558 0 6.057-3.108 6.057-7.531 0-4.094-1.794-6.303-5.75-7.081-3.11-.61-3.25-.503-3.25 2.487m-62.006-.994C29.806 108.52 23.565 116.802 23.571 128c.009 17.933 17.754 29.184 34.056 21.593 8.173-3.805 7.694-4.59-2.818-4.615-10.696-.025-15.765-1.76-20.061-6.865-4.813-5.721-4.852-14.459-.089-20.119 4.134-4.914 7.836-6.265 18.591-6.788 5.362-.26 9.75-.823 9.75-1.25s-2.113-1.801-4.696-3.051c-4.991-2.416-13.165-3.372-17.31-2.024m180.804-.344c-.321.529-1.046 2.651-1.61 4.713-1.016 3.711-.997 3.75 1.893 3.75 2.13 0 2.907-.473 2.874-1.75-.069-2.654-2.493-7.81-3.157-6.713M40.306 119.468l-2.806 2.469 4.128.031c2.482.019 4.623-.566 5.372-1.468.685-.825 2.202-1.494 3.372-1.488 2.317.014 10.628 7.152 10.628 9.128 0 1.533-8.854 9.86-10.484 9.86-.663 0-2.021-.9-3.016-2-2.087-2.306-9.963-2.943-9.274-.75.637 2.026 6.972 4.747 11.056 4.748 4.413.002 10.145-2.166 11.366-4.299.666-1.163 3.736-1.582 14.034-1.915 8.793-.284 13.704-.859 14.75-1.727 2.232-1.853 2.008-6.751-.366-8.022-1.064-.569-7.603-1.035-14.532-1.035-10.409 0-12.699-.267-13.187-1.537C60.333 118.82 55.342 117 49.105 117c-4.948 0-6.483.43-8.799 2.468m6.381 5.337c-1.478 1.542-2.687 3.197-2.687 3.677s1.461 2.092 3.247 3.583l3.248 2.711 3.817-3.023 3.818-3.024-3.261-3.364c-1.794-1.851-3.764-3.365-4.378-3.365s-2.326 1.262-3.804 2.805m92.001-.159c-1.416 1.415-.615 3.354 1.385 3.354 1.398 0 1.968-.543 1.75-1.667-.357-1.841-2.064-2.759-3.135-1.687M96 140q0 2 2 2c1.761 0 2 .667 2 5.57 0 5.203.148 5.548 2.25 5.25 1.96-.279 2.289-.996 2.552-5.57.218-3.777.709-5.25 1.75-5.25.797 0 1.448-.9 1.448-2 0-1.778-.667-2-6-2s-6 .222-6 2m15 5.5c0 6.833.178 7.5 2 7.5 1.467 0 2-.667 2-2.5s.533-2.5 2-2.5 2 .667 2 2.5.533 2.5 2 2.5c1.822 0 2-.667 2-7.5 0-6.747-.194-7.5-1.934-7.5-1.366 0-2.026.807-2.25 2.75-.188 1.637-.923 2.75-1.816 2.75s-1.628-1.113-1.816-2.75c-.224-1.943-.884-2.75-2.25-2.75-1.74 0-1.934.753-1.934 7.5m16.571-5.929c-1.885 1.886-2.145 10.455-.371 12.229.66.66 3.045 1.2 5.3 1.2 5.376 0 6.5-1.326 6.5-7.665 0-4.182-.398-5.478-1.934-6.3-2.86-1.53-7.701-1.257-9.495.536m15.955 1.379c-.839 1.623-1.526 4.998-1.526 7.5 0 3.789.315 4.55 1.883 4.55 1.043 0 2.117-.893 2.407-2 .287-1.1 1.057-2 1.71-2s1.423.9 1.71 2c.29 1.107 1.364 2 2.407 2 1.533 0 1.883-.75 1.883-4.032 0-2.218-.652-5.593-1.449-7.5-1.201-2.874-1.967-3.468-4.474-3.468-2.339 0-3.372.67-4.551 2.95m14.141-2.283c-.367.366-.667 3.741-.667 7.5 0 6.622.077 6.833 2.5 6.833 2.215 0 2.5-.421 2.5-3.691 0-3.46.092-3.57 1.468-1.75.808 1.067 1.483 2.728 1.5 3.691.022 1.2.832 1.75 2.576 1.75 2.518 0 2.541-.073 2.25-7.25-.261-6.427-.516-7.25-2.249-7.25-1.243 0-2.163.88-2.525 2.417l-.571 2.417-1.748-2.667c-1.694-2.586-3.666-3.369-5.034-2M177 139.883c0 1.043.893 2.117 2 2.407 1.67.436 2 1.364 2 5.616 0 4.427.262 5.094 2 5.094 1.758 0 2-.667 2-5.5s.242-5.5 2-5.5q2 0 2-2c0-1.778-.667-2-6-2-5.209 0-6 .248-6 1.883m14.667-1.216c-.367.366-.667 3.741-.667 7.5 0 6.622.077 6.833 2.5 6.833 2.019 0 2.5-.495 2.5-2.573 0-3.283 3.345-2.991 3.82.333.204 1.436 1.012 2.24 2.25 2.24 1.533 0 1.93-.708 1.93-3.441 0-1.893-.408-3.693-.906-4.001s-.653-1.527-.344-2.709c.37-1.415-.069-2.609-1.285-3.499-1.907-1.394-8.619-1.862-9.798-.683m16.403.749c-.693.835-1.051 3.809-.872 7.25.261 5.05.584 5.874 2.404 6.134 1.641.234 1.999.837 1.633 2.75-.378 1.976-.058 2.45 1.648 2.45 1.45 0 2.117-.63 2.117-2 0-1.1-.562-2.053-1.25-2.118s.1-.406 1.75-.756c2.87-.61 3.013-.89 3.302-6.466.364-6.998-.75-8.66-5.802-8.66-2.065 0-4.284.637-4.93 1.416m14.597-.749c-.367.366-.667 3.741-.667 7.5 0 6.622.077 6.833 2.5 6.833 2.215 0 2.5-.421 2.5-3.691 0-3.46.092-3.57 1.468-1.75.808 1.067 1.483 2.728 1.5 3.691.022 1.2.832 1.75 2.576 1.75 2.518 0 2.541-.073 2.25-7.25-.261-6.427-.516-7.25-2.249-7.25-1.243 0-2.163.88-2.525 2.417l-.571 2.417-1.748-2.667c-1.694-2.586-3.666-3.369-5.034-2m17.083.387c-1.348.805-1.75 2.388-1.75 6.889 0 6.618.475 7.057 7.642 7.057h4.479l-.311-3.742c-.358-4.324-3.545-5.986-4.498-2.345-.922 3.526-3.485 2.572-3.125-1.163.277-2.871.699-3.287 3.623-3.568 2.471-.237 3.23-.744 2.992-2-.378-1.995-6.352-2.74-9.052-1.128M131 145.368c0 3.818 1.686 5.714 3.121 3.51 1.423-2.186.576-6.324-1.371-6.693-1.398-.265-1.75.376-1.75 3.183m15.607-1.786c-.858 2.235-.79 2.418.893 2.418.833 0 1.5-.889 1.5-2 0-2.384-1.536-2.653-2.393-.418M196 143.5c0 .825.45 1.5 1 1.5s1-.675 1-1.5-.45-1.5-1-1.5-1 .675-1 1.5m15.19 2.25c.209 2.529.799 3.75 1.81 3.75s1.601-1.221 1.81-3.75c.27-3.252.029-3.75-1.81-3.75s-2.08.498-1.81 3.75"/><path fill="#1976D2" fill-opacity=".633" fill-rule="evenodd" d="M0 128.011v46.997l128.25-.254 128.25-.254.26-47 .259-47-128.509.258L0 81.015zM.462 128c0 26.125.129 36.813.287 23.75.158-13.062.158-34.437 0-47.5C.591 91.188.462 101.875.462 128m42.81-42.801c-.581.716-1.223 2.201-1.427 3.301-.229 1.239-1.696 2.438-3.857 3.153-3.025 1-3.762.9-5.552-.75-2.629-2.423-5.577-2.419-8.575.01-2.105 1.705-2.238 2.24-1.227 4.924 1.026 2.722.87 3.264-1.626 5.655-2.31 2.214-3.332 2.538-6.265 1.988-2.945-.553-3.763-.289-5.124 1.654-2.144 3.061-2.042 4.787.441 7.43 1.684 1.793 1.905 2.793 1.208 5.482-.469 1.809-1.508 3.593-2.31 3.964-5.91 2.735-6.693 3.924-5.56 8.442.386 1.534 1.554 2.488 3.532 2.884 2.373.475 3.16 1.33 3.99 4.337.891 3.225.759 4.039-.943 5.851-2.404 2.56-2.486 4.304-.344 7.363 1.363 1.946 2.227 2.235 5.223 1.749 2.956-.48 4.065-.128 6.279 1.994 2.401 2.3 2.575 2.904 1.621 5.64-.96 2.755-.794 3.301 1.644 5.397 3.42 2.942 4.692 2.928 7.52-.082 2.11-2.246 2.525-2.327 5.924-1.151 2.836.981 3.77 1.915 4.166 4.165.473 2.695.829 2.901 5 2.901 4.153 0 4.558-.231 5.401-3.086.717-2.431 1.711-3.3 4.68-4.093 3.377-.901 4.023-.752 6.206 1.431 2.34 2.339 2.56 2.373 5.507.85 4.002-2.07 4.42-2.884 3.168-6.176-.906-2.382-.686-3.115 1.665-5.569 2.335-2.437 3.228-2.742 6.493-2.22 3.599.575 3.874.422 5.542-3.075 2.229-4.675 1.151-5.525-7.032-5.547-5.63-.014-6.07.177-11.238 4.901-6.87 6.278-13.201 8.511-22.286 7.859-10.728-.77-19.459-6.75-24.349-16.675-3.321-6.739-3.117-17.729.455-24.6 3.091-5.946 7.624-10.426 13.778-13.619 6.79-3.523 17.531-3.348 25.182.409 3.124 1.535 7.048 4.347 8.719 6.25 2.927 3.333 3.297 3.46 10.1 3.46 8.062 0 9.105-.96 6.506-5.987-1.509-2.917-1.93-3.117-5.339-2.541-3.201.54-4.075.234-6.47-2.265-2.376-2.48-2.626-3.266-1.763-5.537.838-2.204.645-2.983-1.153-4.658-2.732-2.546-5.57-2.56-8.253-.04-1.813 1.704-2.582 1.825-5.639.886-2.69-.825-3.763-1.84-4.465-4.222-.787-2.666-1.462-3.181-4.511-3.437-2.073-.173-4.031.249-4.642 1m92.248 9.551c-1.947 2.092-2.209 2.825-1.092 3.063.807.173 2.391-.181 3.52-.785 1.49-.798 2.614-.798 4.104 0 1.129.604 2.713.958 3.52.785C147.671 97.365 142.528 92 140 92c-1.055 0-3.071 1.237-4.48 2.75m86.654-.436c-2.59 2.757-2.733 3.686-.568 3.686 1.935 0 7.537-4.524 6.672-5.389-1.283-1.283-4.014-.521-6.104 1.703M98 104c0 2.75-.45 5-1 5s-1 .9-1 2 .45 2 1 2 1 2.025 1 4.5v4.5h6.1c5.604 0 6.377-.277 9.5-3.4 2.699-2.699 3.397-4.194 3.385-7.25-.03-7.871-5.188-12.345-14.235-12.348L98 99zm21.461-3.937c-.361.585.062 1.858.941 2.829 2.202 2.433 2.279 14.909.098 15.746-.825.317-1.5 1.203-1.5 1.969 0 1.022 1.466 1.393 5.5 1.393 4.272 0 5.5-.342 5.5-1.531 0-.843-.675-1.791-1.5-2.107-1.133-.435-1.5-2.268-1.5-7.5s.367-7.065 1.5-7.5c.825-.317 1.5-1.428 1.5-2.469 0-1.602-.76-1.893-4.941-1.893-2.718 0-5.237.478-5.598 1.063m14.248-.439c-.39.39-.709 5.584-.709 11.543V122h7c6.333 0 7-.19 7-2 0-1.667-.667-2-4-2-3.6 0-4-.25-4-2.5 0-2.19.433-2.5 3.5-2.5s3.5-.31 3.5-2.5-.433-2.5-3.5-2.5c-2.797 0-3.5-.39-3.5-1.94 0-1.519.812-2.006 3.75-2.25 2.98-.246 3.75-.721 3.75-2.31 0-1.747-.764-2.037-6.041-2.292-3.323-.161-6.36.026-6.75.416M151 110.437V122h2.579c2.573 0 2.578-.018 2.25-7.525-.371-8.49-.169-8.424 5.459 1.775 2.859 5.18 3.498 5.75 6.443 5.75H171v-11.57c0-11.426-.028-11.565-2.25-11.25-2.11.3-2.25.797-2.25 7.988 0 4.218-.186 7.482-.413 7.254s-2.263-3.679-4.524-7.668c-3.634-6.413-4.485-7.29-7.337-7.567L151 98.873zm33.714-10.818c-.393.393-.714 5.589-.714 11.548V122h2.5c2.428 0 2.503-.21 2.6-7.25l.1-7.25 2.287 7c1.956 5.985 2.652 7.044 4.798 7.307 2.294.28 2.729-.325 5.034-7l2.523-7.307.079 7.25c.077 7.046.149 7.25 2.579 7.25h2.5V99h-3.418c-3.392 0-3.438.062-6.165 8.25l-2.748 8.25-2.663-8c-2.47-7.421-2.877-8.022-5.62-8.297-1.627-.164-3.279.024-3.672.416M219 99.391c0 .285-1.773 5.489-3.94 11.564L211.12 122h2.921c2.282 0 3.058-.547 3.548-2.5.536-2.134 1.201-2.5 4.544-2.5 3.257 0 4.076.421 4.867 2.5.667 1.756 1.702 2.5 3.475 2.5 1.389 0 2.513-.338 2.498-.75s-1.702-5.475-3.751-11.25c-3.625-10.221-3.811-10.508-6.973-10.813-1.787-.173-3.249-.081-3.249.204m14 .13c0 .36 1.575 3.47 3.5 6.913 2.602 4.653 3.5 7.452 3.5 10.912 0 4.504.096 4.654 3 4.654 2.909 0 3.001-.144 3.023-4.75.016-3.469.94-6.452 3.423-11.061 2.688-4.986 3.103-6.425 1.978-6.857-2.422-.929-4.249.405-6.442 4.703l-2.108 4.133-2.187-4.334c-1.671-3.311-2.836-4.409-4.937-4.65-1.512-.174-2.75-.023-2.75.337m-196.832 7.082c-15.344 7.647-17.788 29.283-4.547 40.252 7.983 6.614 18.129 7.488 27.629 2.381 7.572-4.071 6.394-5.236-5.29-5.236-8.013 0-10.819-.397-13.899-1.969-3.915-1.997-7.328-6.487-8.386-11.031-.915-3.928.901-9.943 3.995-13.235 4.261-4.534 8.156-5.765 18.239-5.765 4.935 0 9.214-.39 9.508-.866.295-.477-.258-1.585-1.227-2.462-5.834-5.28-17.687-6.222-26.022-2.069M103 106.5c0 1.833.533 2.5 2 2.5q2 0 2 2t-2 2c-1.467 0-2 .667-2 2.5 0 3.044 2.71 3.365 5.989.71 1.567-1.269 2.211-2.878 2.211-5.527 0-4.66-1.611-6.683-5.322-6.683-2.403 0-2.878.413-2.878 2.5m118.168 1.447c-1.337 3.835-1.125 4.349 1.596 3.884 1.754-.3 1.825-.658.759-3.796l-1.178-3.464zM43 116.654c-2.444.979-5.981 4.569-5.41 5.491.984 1.593 7.126.866 9.683-1.145 1.398-1.1 2.953-2 3.455-2 1.771 0 9.272 7.179 9.272 8.875 0 2.134-7.016 9.125-9.157 9.125-.865 0-2.717-.9-4.116-2-2.609-2.052-8.168-2.714-9.171-1.091-.309.5.824 2.075 2.518 3.5 2.589 2.178 4.067 2.591 9.28 2.591 6.012 0 9.458-1.318 12.146-4.646.68-.842 5.269-1.337 14.333-1.546 11.838-.274 13.491-.526 14.75-2.249 1.798-2.463 1.797-4.657-.002-7.118-1.257-1.72-2.934-1.979-14.75-2.279-12.785-.325-13.444-.446-16.098-2.954-2.28-2.155-3.865-2.663-9-2.885-3.428-.149-6.908 0-7.733.331m3.235 7.779-3.735 3.433 3.446 3.567C47.842 133.395 49.891 135 50.5 135s2.634-1.575 4.5-3.5l3.392-3.5L55 124.5c-1.866-1.925-3.761-3.5-4.211-3.5s-2.499 1.545-4.554 3.433m91.128 1.064c-.923 2.405 1.253 4.235 3.415 2.872 2.428-1.533 2.139-3.81-.532-4.189-1.385-.197-2.497.312-2.883 1.317M96 140.5c0 1.515.57 2.5 1.448 2.5 1.041 0 1.532 1.473 1.75 5.25.279 4.853.491 5.25 2.802 5.25 2.304 0 2.523-.403 2.799-5.146.239-4.119.688-5.248 2.25-5.656 1.151-.302 1.951-1.369 1.951-2.604 0-1.91-.57-2.094-6.5-2.094-6.267 0-6.5.09-6.5 2.5m14.207 5.179c.285 7.597.364 7.821 2.793 7.821 1.984 0 2.565-.568 2.816-2.75.174-1.512.707-2.75 1.184-2.75s1.01 1.238 1.184 2.75c.251 2.182.832 2.75 2.816 2.75 2.429 0 2.508-.224 2.793-7.821l.294-7.82-2.794.32c-2.012.231-2.882.95-3.113 2.571-.175 1.238-.707 2.25-1.18 2.25s-1.005-1.012-1.18-2.25c-.231-1.621-1.101-2.34-3.113-2.571l-2.794-.32zM127.2 139.2c-.66.66-1.2 3.794-1.2 6.965 0 6.297 1.276 7.835 6.5 7.835 5.353 0 6.5-1.488 6.5-8.428 0-4.875-.369-6.5-1.582-6.965-2.691-1.033-8.956-.669-10.218.593m15.308 3.141c-2.276 5.958-1.724 11.057 1.242 11.479 1.711.243 2.25-.176 2.25-1.75 0-2.694 2.605-2.687 3.31.009.391 1.495 1.197 1.987 2.867 1.75 3.042-.431 3.618-5.459 1.315-11.488-1.557-4.078-1.889-4.341-5.492-4.341s-3.935.263-5.492 4.341m14.7 3.409c.263 6.986.489 7.75 2.292 7.75 1.508 0 2.143-.861 2.583-3.5l.583-3.5 1.708 3.815c1.166 2.606 2.25 3.712 3.417 3.49 1.405-.269 1.761-1.702 2.001-8.066.291-7.699.279-7.739-2.25-7.739-1.943 0-2.542.512-2.542 2.174v2.175l-2.314-2.175c-1.273-1.196-3.092-2.174-4.043-2.174-1.513 0-1.691.961-1.435 7.75M176 140.094c0 1.235.8 2.302 1.951 2.604 1.562.408 2.011 1.537 2.25 5.656.276 4.743.495 5.146 2.799 5.146 2.311 0 2.523-.397 2.802-5.25.218-3.777.709-5.25 1.75-5.25.878 0 1.448-.985 1.448-2.5 0-2.41-.233-2.5-6.5-2.5-5.93 0-6.5.184-6.5 2.094m15.207 5.605c.264 7.037.489 7.801 2.293 7.801 1.313 0 2.11-.773 2.32-2.25.175-1.238.932-2.25 1.68-2.25s1.505 1.012 1.68 2.25c.235 1.648.989 2.25 2.82 2.25 2.223 0 2.481-.388 2.332-3.5-.093-1.925-.549-5.3-1.013-7.5l-.845-4-5.78-.301-5.78-.301zM207.2 139.2c-1.995 1.995-1.512 11.427.692 13.511 1.041.984 2.059 2.689 2.264 3.789.253 1.364 1.162 2 2.858 2 1.819 0 2.486-.536 2.486-2 0-1.1 1.012-2.82 2.25-3.823 1.729-1.4 2.25-2.862 2.25-6.315 0-6.881-1.211-8.362-6.835-8.362-2.621 0-5.305.54-5.965 1.2m15.008 6.55c.263 6.986.489 7.75 2.292 7.75 1.512 0 2.122-.833 2.5-3.413.403-2.75.722-3.138 1.642-2 .629.777 1.31 2.313 1.514 3.413.224 1.204 1.162 2 2.358 2 1.785 0 2.015-.783 2.278-7.75.291-7.711.279-7.75-2.25-7.75-1.943 0-2.542.512-2.542 2.174v2.175l-2.314-2.175c-1.273-1.196-3.092-2.174-4.043-2.174-1.513 0-1.691.961-1.435 7.75m16.363-6.179c-.998.999-1.571 3.348-1.571 6.444 0 5.913 2.263 7.985 8.723 7.985H250v-4.5c0-4.133-.204-4.5-2.5-4.5-1.833 0-2.5.533-2.5 2 0 1.1-.45 2-1 2s-1-1.32-1-2.934c0-2.456.447-2.985 2.75-3.25 1.969-.226 2.841-.955 3.07-2.566.29-2.047-.086-2.25-4.179-2.25-2.756 0-5.107.609-6.07 1.571m-106.904 3.096c-1.352 1.351-.696 6.333.833 6.333 1.048 0 1.5-1.056 1.5-3.5 0-3.309-.839-4.328-2.333-2.833M196 143c0 .55.45 1 1 1s1-.45 1-1-.45-1-1-1-1 .45-1 1m16 2.5c0 1.925.45 3.5 1 3.5s1-1.575 1-3.5-.45-3.5-1-3.5-1 1.575-1 3.5m-65-1.5c0 .55.45 1 1 1s1-.45 1-1-.45-1-1-1-1 .45-1 1"/></svg>